<?xml version="1.0" encoding="utf-8"?>
<!-- Generator: Adobe Illustrator 16.0.3, SVG Export Plug-In . SVG Version: 6.00 Build 0)  -->
<!DOCTYPE svg PUBLIC "-//W3C//DTD SVG 1.1//EN" "http://www.w3.org/Graphics/SVG/1.1/DTD/svg11.dtd">
<svg version="1.1" id="Capa_1" xmlns="http://www.w3.org/2000/svg" xmlns:xlink="http://www.w3.org/1999/xlink" x="0px" y="0px"
	 width="240px" height="90px" viewBox="0 0 240 90" enable-background="new 0 0 240 90" xml:space="preserve">
<g id="XMLID_1389_">
	<path id="XMLID_1997_" fill="#98C93C" d="M67.692,43.203c0-1.578-0.826-2.963-2.067-3.748l0.001-0.001
		c-1.683-1.045-2.803-2.909-2.803-5.034c0-1.292,0.413-2.486,1.114-3.46l-0.008-0.007c0.501-0.718,0.796-1.591,0.796-2.533
		c0-1.12-0.416-2.143-1.102-2.923c-0.859-1.036-7.127-8.988-23.533-18.729c-0.914-0.576-1.995-0.909-3.154-0.909
		c-1.316,0-2.531,0.429-3.514,1.154V7.011l-9.893,7.121l-0.02,0.012l0,0c-0.923,0.594-2.021,0.938-3.2,0.938l-7.402,0.002
		c-2.448,0-4.432,1.984-4.432,4.432L8.47,79.391c0,1.078,0.387,2.066,1.026,2.835c0.611,0.81,2.276,2.233,4.007,3.228
		c0.686,0.436,1.5,0.688,2.373,0.688c2.447,0,4.432-1.984,4.432-4.432l0.017-11.844c0-2.447,1.983-4.432,4.432-4.432
		c0.694,0,1.351,0.159,1.936,0.444l0.014,0.006c3.569,1.51,7.493,2.346,11.612,2.346c14.476,0,26.542-10.313,29.252-23.993
		C67.649,43.906,67.692,43.56,67.692,43.203z"/>
	<g id="XMLID_1538_">
		<g id="XMLID_1539_">
			<g>
				<g id="XMLID_158_">
					<g id="XMLID_159_">
						<g id="XMLID_160_">
							<path id="XMLID_181_" fill="#58595B" d="M85.456,47.99c0-0.648,0.405-1.081,1.081-1.081h5.675
								c3.674,0,5.891,2.216,5.891,5.485s-2.217,5.485-5.891,5.485h-4.188c-0.108,0-0.163,0.055-0.163,0.162v6.08
								c0,0.811-0.486,1.297-1.188,1.297c-0.729,0-1.216-0.486-1.216-1.297V47.99z M95.725,52.395c0-2-1.324-3.242-3.595-3.242
								h-4.106c-0.108,0-0.163,0.054-0.163,0.162v6.16c0,0.109,0.055,0.162,0.163,0.162h4.106
								C94.4,55.637,95.725,54.395,95.725,52.395z"/>
							<path id="XMLID_179_" fill="#58595B" d="M99.913,64.203V53.422c0-0.757,0.486-1.217,1.135-1.217s1.135,0.46,1.135,1.217
								v0.594h0.027c0.54-1.162,1.729-1.973,3.323-1.973c0.892,0,1.485,0.217,1.919,0.46c0.459,0.243,0.648,0.595,0.648,0.972
								c0,0.65-0.46,1.137-1.135,1.137c-0.162,0-0.379-0.055-0.568-0.136c-0.486-0.189-0.945-0.324-1.486-0.324
								c-1.945,0-2.729,1.621-2.729,3.783v6.269c0,0.756-0.486,1.216-1.135,1.216S99.913,64.959,99.913,64.203z"/>
							<path id="XMLID_176_" fill="#58595B" d="M109.397,62.096c-0.297-0.893-0.432-1.783-0.432-3.297
								c0-1.486,0.135-2.378,0.432-3.27c0.703-2.216,2.594-3.486,5.107-3.486c2.513,0,4.404,1.271,5.106,3.486
								c0.298,0.892,0.433,1.783,0.433,3.27c0,1.514-0.135,2.404-0.433,3.297c-0.702,2.188-2.594,3.486-5.106,3.486
								C111.991,65.582,110.101,64.284,109.397,62.096z M117.423,61.447c0.217-0.703,0.297-1.406,0.297-2.648
								c0-1.243-0.08-1.918-0.297-2.621c-0.433-1.297-1.486-2.026-2.918-2.026c-1.433,0-2.486,0.729-2.919,2.026
								c-0.216,0.703-0.297,1.378-0.297,2.621c0,1.242,0.081,1.945,0.297,2.648c0.433,1.297,1.486,2.026,2.919,2.026
								C115.937,63.474,116.99,62.744,117.423,61.447z"/>
							<path id="XMLID_174_" fill="#58595B" d="M125.259,64.014l-3.918-10.16c-0.081-0.216-0.107-0.379-0.107-0.566
								c0-0.595,0.432-1.082,1.107-1.082c0.541,0,0.892,0.324,1.08,0.811l3.352,8.999h0.054l3.27-8.999
								c0.189-0.486,0.54-0.811,1.081-0.811c0.676,0,1.107,0.487,1.107,1.082c0,0.188-0.027,0.351-0.107,0.566l-3.945,10.16
								c-0.406,1.055-0.757,1.405-1.486,1.405S125.664,65.068,125.259,64.014z"/>
							<path id="XMLID_171_" fill="#58595B" d="M134.04,48.26c0-0.837,0.676-1.486,1.486-1.486s1.486,0.649,1.486,1.486
								c0,0.811-0.676,1.486-1.486,1.486S134.04,49.07,134.04,48.26z M134.392,53.422c0-0.757,0.486-1.217,1.135-1.217
								s1.135,0.46,1.135,1.217v10.781c0,0.756-0.486,1.216-1.135,1.216s-1.135-0.46-1.135-1.216V53.422z"/>
							<path id="XMLID_169_" fill="#58595B" d="M140.012,53.422c0-0.757,0.487-1.217,1.136-1.217s1.135,0.46,1.135,1.217V53.8h0.027
								c0.621-1,1.863-1.757,3.62-1.757c2.811,0,4.485,1.918,4.485,4.864v7.296c0,0.756-0.486,1.216-1.135,1.216
								s-1.135-0.46-1.135-1.216v-6.756c0-2.08-0.945-3.296-2.891-3.296c-1.757,0-2.973,1.242-2.973,3.161v6.891
								c0,0.756-0.486,1.216-1.135,1.216s-1.136-0.46-1.136-1.216V53.422z"/>
							<path id="XMLID_167_" fill="#58595B" d="M153.388,62.096c-0.243-0.783-0.406-1.838-0.406-3.297
								c0-1.432,0.163-2.486,0.406-3.27c0.729-2.242,2.621-3.486,5.106-3.486c1.946,0,3.323,0.838,4.135,1.893
								c0.216,0.297,0.325,0.54,0.325,0.837c0,0.567-0.434,1-1.001,1c-0.405,0-0.702-0.216-0.999-0.54
								c-0.596-0.648-1.298-1.081-2.46-1.081c-1.405,0-2.458,0.675-2.892,2.026c-0.216,0.676-0.297,1.486-0.297,2.621
								c0,1.162,0.081,1.973,0.297,2.648c0.434,1.351,1.486,2.026,2.892,2.026c1.162,0,1.864-0.433,2.46-1.081
								c0.297-0.324,0.594-0.541,0.999-0.541c0.567,0,1.001,0.434,1.001,1c0,0.298-0.109,0.541-0.325,0.838
								c-0.812,1.055-2.188,1.893-4.135,1.893C156.009,65.582,154.116,64.338,153.388,62.096z"/>
							<path id="XMLID_164_" fill="#58595B" d="M165.222,48.26c0-0.837,0.676-1.486,1.487-1.486c0.811,0,1.485,0.649,1.485,1.486
								c0,0.811-0.675,1.486-1.485,1.486C165.897,49.746,165.222,49.07,165.222,48.26z M165.573,53.422
								c0-0.757,0.486-1.217,1.136-1.217c0.647,0,1.134,0.46,1.134,1.217v10.781c0,0.756-0.486,1.216-1.134,1.216
								c-0.649,0-1.136-0.46-1.136-1.216V53.422z"/>
							<path id="XMLID_161_" fill="#58595B" d="M181.651,64.338c0,0.621-0.486,1.081-1.162,1.081c-0.405,0-0.729-0.188-1-0.567
								l-0.514-0.811h-0.026c-0.864,0.973-2.081,1.541-3.972,1.541c-2.893,0-4.567-1.433-4.567-3.893
								c0-2.674,1.838-3.998,5.054-3.998h2.944c0.108,0,0.163-0.055,0.163-0.162v-0.622c0-1.81-0.838-2.837-3.107-2.837
								c-1,0-2.027,0.324-2.648,0.648c-0.217,0.107-0.459,0.189-0.648,0.189c-0.595,0-0.973-0.379-0.973-0.973
								c0-0.352,0.162-0.703,0.54-0.92c0.811-0.539,2.161-0.973,3.945-0.973c3.458,0,5.079,1.648,5.079,4.838v4.647
								c0,0.675,0.055,0.946,0.244,1.323l0.459,0.838C181.57,63.879,181.651,64.122,181.651,64.338z M178.571,61.096v-1.432
								c0-0.109-0.055-0.162-0.163-0.162h-2.594c-2.216,0-3.216,0.648-3.216,2.107c0,1.352,0.973,2.026,2.702,2.026
								C177.301,63.636,178.571,62.689,178.571,61.096z"/>
						</g>
					</g>
				</g>
			</g>
		</g>
	</g>
	<g id="XMLID_1390_">
		<path id="XMLID_1534_" fill="#58595B" d="M85.457,25.121c0-1.053,0.647-1.755,1.729-1.755h5.698c3.997,0,5.86,1.971,5.86,4.888
			c0,1.971-0.892,3.241-2.134,3.916v0.054c1.215,0.486,2.458,1.973,2.458,4.16c0,3.618-2.403,5.347-6.374,5.347h-5.509
			c-1.081,0-1.729-0.675-1.729-1.729V25.121z M92.37,30.873c1.514,0,2.432-0.783,2.432-2.161s-0.893-2.134-2.432-2.134h-2.781
			c-0.107,0-0.162,0.054-0.162,0.162v3.97c0,0.107,0.055,0.162,0.162,0.162H92.37z M89.589,38.516h2.998
			c1.62,0,2.512-0.864,2.512-2.322c0-1.377-0.892-2.27-2.512-2.27h-2.998c-0.107,0-0.162,0.055-0.162,0.162v4.268
			C89.427,38.461,89.481,38.516,89.589,38.516z"/>
		<path id="XMLID_1532_" fill="#58595B" d="M108.925,40.514h-0.027c-0.647,0.838-1.781,1.513-3.456,1.513
			c-2.89,0-4.375-2.025-4.375-4.861v-6.67c0-1.243,0.81-1.999,1.917-1.999c1.08,0,1.863,0.756,1.863,1.999v5.94
			c0,1.432,0.648,2.377,1.999,2.377c1.323,0,1.999-0.945,1.999-2.377v-5.94c0-1.243,0.783-1.999,1.891-1.999
			c1.08,0,1.89,0.756,1.89,1.999v9.397c0,1.242-0.783,1.999-1.89,1.999C109.843,41.892,109.142,41.379,108.925,40.514z"/>
		<path id="XMLID_1501_" fill="#58595B" d="M115.136,38.299c-0.27-0.81-0.432-1.755-0.432-3.105c0-1.377,0.135-2.322,0.405-3.133
			c0.783-2.376,2.862-3.699,5.645-3.699c2.89,0,4.888,1.35,5.644,3.673c0.298,0.918,0.434,1.837,0.434,3.052
			c0,0.729-0.46,1.242-1.243,1.242h-6.94c-0.108,0-0.162,0.055-0.162,0.162c0,0.27,0.054,0.514,0.135,0.756
			c0.352,1.107,1.351,1.701,2.701,1.701c0.891,0,1.756-0.297,2.457-0.675c0.459-0.271,0.918-0.405,1.297-0.405
			c0.783,0,1.377,0.594,1.377,1.404c0,0.567-0.27,1.026-0.756,1.351c-1.242,0.864-2.701,1.404-4.727,1.404
			C117.945,42.026,115.893,40.649,115.136,38.299z M122.941,33.816c0.108,0,0.162-0.054,0.162-0.162
			c0-0.432-0.054-0.702-0.136-0.973c-0.297-0.918-1.106-1.431-2.188-1.431c-1.08,0-1.863,0.513-2.16,1.431
			c-0.081,0.271-0.135,0.541-0.135,0.973c0,0.108,0.054,0.162,0.162,0.162H122.941z"/>
		<path id="XMLID_1499_" fill="#58595B" d="M136.634,39.893v-5.941c0-1.432-0.703-2.376-2.053-2.376
			c-1.351,0-2.025,0.944-2.025,2.376v5.941c0,1.242-0.811,1.999-1.891,1.999c-1.107,0-1.891-0.757-1.891-1.999v-9.397
			c0-1.243,0.783-1.999,1.891-1.999c0.891,0,1.594,0.513,1.809,1.377h0.027c0.648-0.837,1.783-1.512,3.457-1.512
			c2.89,0,4.457,2.025,4.457,4.861v6.67c0,1.242-0.784,1.999-1.891,1.999C137.444,41.892,136.634,41.135,136.634,39.893z"/>
		<path id="XMLID_1477_" fill="#58595B" d="M142.817,38.272c-0.297-0.945-0.432-1.81-0.432-3.079s0.135-2.133,0.432-3.078
			c0.783-2.404,2.809-3.754,5.672-3.754c2.862,0,4.888,1.35,5.671,3.754c0.298,0.945,0.433,1.809,0.433,3.078
			s-0.135,2.134-0.433,3.079c-0.783,2.403-2.809,3.754-5.671,3.754C145.626,42.026,143.601,40.676,142.817,38.272z M150.515,37.381
			c0.189-0.566,0.242-1.296,0.242-2.188c0-0.891-0.053-1.62-0.242-2.188c-0.297-0.918-0.973-1.458-2.025-1.458
			s-1.729,0.54-2.025,1.458c-0.189,0.567-0.243,1.297-0.243,2.188c0,0.892,0.054,1.621,0.243,2.188
			c0.297,0.918,0.973,1.459,2.025,1.459S150.218,38.299,150.515,37.381z"/>
		<path id="XMLID_1422_" fill="#58595B" d="M156.942,40.784c-0.648-0.405-0.918-0.892-0.918-1.513c0-0.837,0.701-1.512,1.566-1.512
			c0.351,0,0.674,0.107,1.106,0.351c0.945,0.54,1.944,0.945,3.214,0.945c1.377,0,2.025-0.486,2.025-1.216
			c0-0.621-0.352-0.944-1.891-1.106l-1.432-0.162c-2.836-0.324-4.267-1.729-4.267-3.997c0-2.565,1.972-4.213,5.401-4.213
			c1.459,0,2.863,0.297,3.971,0.864c0.729,0.378,1.106,0.837,1.106,1.485c0,0.837-0.595,1.485-1.485,1.485
			c-0.27,0-0.566-0.081-1.08-0.324c-0.811-0.378-1.701-0.567-2.646-0.567c-1.161,0-1.647,0.405-1.647,1.026
			c0,0.595,0.323,0.919,1.81,1.08l1.432,0.162c3.078,0.351,4.348,1.782,4.348,3.97c0,2.674-2.134,4.483-5.834,4.483
			C159.67,42.026,158.022,41.459,156.942,40.784z"/>
		<path id="XMLID_1418_" fill="#58595B" d="M175.063,39.271l4.969-13.746c0.513-1.458,1.323-2.322,2.728-2.322
			c1.403,0,2.241,0.864,2.755,2.322l4.888,13.746c0.081,0.217,0.136,0.486,0.136,0.756c0,1.135-0.919,1.864-1.918,1.864
			c-0.864,0-1.566-0.513-1.863-1.404l-0.756-2.241h-6.563l-0.73,2.241c-0.297,0.892-0.998,1.404-1.863,1.404
			c-0.998,0-1.917-0.729-1.917-1.864C174.928,39.758,174.981,39.488,175.063,39.271z M184.894,34.869l-2.107-6.427h-0.08
			l-2.134,6.427H184.894z"/>
		<path id="XMLID_1415_" fill="#58595B" d="M192.022,25.202c0-1.188,0.945-2.134,2.134-2.134s2.134,0.945,2.134,2.134
			c0,1.188-0.945,2.133-2.134,2.133S192.022,26.39,192.022,25.202z M192.266,39.893v-9.397c0-1.243,0.784-1.999,1.891-1.999
			c1.08,0,1.891,0.756,1.891,1.999v9.397c0,1.242-0.811,1.999-1.891,1.999C193.05,41.892,192.266,41.135,192.266,39.893z"/>
		<path id="XMLID_1396_" fill="#58595B" d="M198.774,39.893v-9.397c0-1.243,0.783-1.999,1.891-1.999c0.891,0,1.62,0.513,1.836,1.459
			v0.027h0.027c0.594-0.865,1.809-1.621,3.295-1.621c0.594,0,1.025,0.108,1.377,0.27c0.676,0.324,0.999,0.891,0.999,1.539
			c0,1.107-0.756,1.918-1.863,1.918c-0.271,0-0.54-0.054-0.81-0.135c-0.271-0.081-0.676-0.135-0.973-0.135
			c-1.404,0-1.998,0.999-1.998,2.754v5.32c0,1.242-0.811,1.999-1.891,1.999C199.558,41.892,198.774,41.135,198.774,39.893z"/>
		<path id="XMLID_1393_" fill="#58595B" d="M208.874,38.299c-0.27-0.81-0.432-1.755-0.432-3.105c0-1.377,0.135-2.322,0.404-3.133
			c0.783-2.376,2.863-3.699,5.645-3.699c2.891,0,4.889,1.35,5.645,3.673c0.297,0.918,0.432,1.837,0.432,3.052
			c0,0.729-0.459,1.242-1.242,1.242h-6.939c-0.109,0-0.162,0.055-0.162,0.162c0,0.27,0.053,0.514,0.135,0.756
			c0.352,1.107,1.35,1.701,2.7,1.701c0.892,0,1.755-0.297,2.458-0.675c0.459-0.271,0.918-0.405,1.296-0.405
			c0.783,0,1.378,0.594,1.378,1.404c0,0.567-0.271,1.026-0.756,1.351c-1.243,0.864-2.701,1.404-4.727,1.404
			C211.683,42.026,209.63,40.649,208.874,38.299z M216.679,33.816c0.108,0,0.162-0.054,0.162-0.162c0-0.432-0.054-0.702-0.135-0.973
			c-0.297-0.918-1.107-1.431-2.188-1.431s-1.863,0.513-2.16,1.431c-0.082,0.271-0.135,0.541-0.135,0.973
			c0,0.108,0.053,0.162,0.162,0.162H216.679z"/>
		<path id="XMLID_1391_" fill="#58595B" d="M222.917,40.784c-0.647-0.405-0.918-0.892-0.918-1.513c0-0.837,0.703-1.512,1.566-1.512
			c0.352,0,0.676,0.107,1.107,0.351c0.945,0.54,1.944,0.945,3.214,0.945c1.378,0,2.025-0.486,2.025-1.216
			c0-0.621-0.351-0.944-1.89-1.106l-1.432-0.162c-2.836-0.324-4.268-1.729-4.268-3.997c0-2.565,1.971-4.213,5.401-4.213
			c1.458,0,2.862,0.297,3.97,0.864c0.729,0.378,1.107,0.837,1.107,1.485c0,0.837-0.594,1.485-1.485,1.485
			c-0.271,0-0.567-0.081-1.08-0.324c-0.81-0.378-1.702-0.567-2.647-0.567c-1.16,0-1.646,0.405-1.646,1.026
			c0,0.595,0.324,0.919,1.81,1.08l1.431,0.162c3.079,0.351,4.348,1.782,4.348,3.97c0,2.674-2.133,4.483-5.833,4.483
			C225.646,42.026,223.998,41.459,222.917,40.784z"/>
	</g>
</g>
</svg>
